<svg width="137" height="201" viewBox="0 0 137 201" fill="none" xmlns="http://www.w3.org/2000/svg">
<path d="M26.9326 43.537L25.0748 44.3008C18.8223 35.375 13.4924 25.8373 9.16713 15.8345L8.35835 13.9641L1.04492 -2.94922H73.1345L58.9841 17.0984C55.717 21.727 54.77 27.6048 56.4181 33.0252L61.1195 40.0053H47.0151H44.8101C38.6777 40.0053 32.6044 41.2051 26.9326 43.537Z" fill="#BAE6FD"/>
<path d="M56.547 17.2346L71.0056 -4H153.582V206H71.0056L54.8169 184.263C53.1426 182.014 52.2383 179.286 52.2383 176.483C52.2383 174.172 52.9821 171.924 54.3598 170.069L61.5902 160.335C63.8029 157.356 67.2948 155.6 71.0056 155.6L86.5556 149.3L95.6711 137.75L106.395 123.575L109.613 109.925V96.8V85.25L104.25 72.65L95.6711 58.475L84.4108 49.55L71.0056 43.25L57.6004 40.1L54.1034 31.5405C52.9033 28.6027 52.8408 25.3232 53.9283 22.3419C54.5864 20.5376 55.4661 18.822 56.547 17.2346Z" fill="#00C2FF"/>
<path d="M22.3525 165.728L29.2537 156.125L64.2537 159.275C56.7106 170.015 56.6111 184.304 64.004 195.148L71.0448 205.475H0L10.4327 185.204C13.9206 178.427 17.9047 171.918 22.3525 165.728Z" fill="#BAE6FD"/>
</svg>
