<svg width="101" height="100" viewBox="0 0 101 100" fill="none" xmlns="http://www.w3.org/2000/svg">
<path d="M96.9807 49.9979C98.5251 48.1995 99.6074 46.0514 100.134 43.74C100.66 41.4286 100.614 39.0237 100.001 36.734C99.387 34.4442 98.224 32.3388 96.6125 30.6003C95.001 28.8617 92.9897 27.5426 90.753 26.7574C91.1912 24.4277 91.0544 22.0262 90.3544 19.7612C89.6543 17.4963 88.4122 15.4364 86.7358 13.7602C85.0594 12.0841 82.9994 10.8422 80.7344 10.1425C78.4694 9.44275 76.0678 9.30623 73.7381 9.74479C72.9535 7.50756 71.6347 5.49566 69.8961 3.88376C68.1576 2.27186 66.0519 1.10869 63.7618 0.495228C61.4717 -0.118234 59.0665 -0.16344 56.755 0.363534C54.4435 0.890508 52.2956 1.97374 50.4977 3.51917C48.6992 1.9748 46.5512 0.892548 44.2398 0.366302C41.9284 -0.159944 39.5235 -0.114292 37.2338 0.499295C34.944 1.11288 32.8386 2.27588 31.1 3.88738C29.3615 5.49889 28.0424 7.51024 27.2572 9.74695C24.9276 9.3091 22.5263 9.44623 20.2617 10.1464C17.9971 10.8467 15.9375 12.0888 14.2616 13.7651C12.5857 15.4415 11.3441 17.5014 10.6444 19.7662C9.94481 22.031 9.80829 24.4323 10.2467 26.7618C8.01002 27.547 5.99867 28.8661 4.38716 30.6046C2.77565 32.3431 1.61265 34.4486 0.999062 36.7383C0.385475 39.0281 0.339816 41.4329 0.866062 43.7443C1.39231 46.0557 2.47458 48.2038 4.01895 50.0022C2.47411 51.8006 1.39151 53.9488 0.86511 56.2605C0.338714 58.5721 0.384412 60.9772 0.998269 63.2672C1.61213 65.5571 2.77557 67.6627 4.38763 69.4011C5.99969 71.1394 8.01167 72.4581 10.2489 73.2427C9.81008 75.5722 9.94644 77.9737 10.6462 80.2386C11.3459 82.5035 12.5878 84.5634 14.2641 86.2396C15.9405 87.9157 18.0006 89.1573 20.2656 89.8568C22.5306 90.5562 24.9321 90.6923 27.2616 90.2532C28.0468 92.4899 29.3658 94.5012 31.1044 96.1127C32.8429 97.7242 34.9483 98.8872 37.2381 99.5008C39.5278 100.114 41.9327 100.16 44.2441 99.6338C46.5555 99.1076 48.7036 98.0253 50.502 96.4809C52.3004 98.0258 54.4486 99.1084 56.7603 99.6348C59.0719 100.161 61.477 100.115 63.767 99.5016C66.0569 98.8877 68.1625 97.7243 69.9008 96.1122C71.6392 94.5002 72.9579 92.4882 73.7425 90.251C76.0721 90.6897 78.4736 90.5532 80.7385 89.8535C83.0035 89.1538 85.0635 87.9119 86.7397 86.2356C88.416 84.5594 89.6579 82.4994 90.3576 80.2344C91.0574 77.9695 91.1938 75.568 90.7551 73.2383C92.992 72.4533 95.0035 71.1343 96.6151 69.3957C98.2267 67.6571 99.3896 65.5515 100.003 63.2616C100.616 60.9717 100.662 58.5667 100.135 56.2553C99.6084 53.9439 98.5257 51.796 96.9807 49.9979Z" fill="#18C07A"/>
<path d="M41.5245 69.0842L27.6301 55.1984C27.1028 54.6703 26.8066 53.9544 26.8066 53.2081C26.8066 52.4618 27.1028 51.7459 27.6301 51.2178L29.3181 49.5276C29.8463 49.0002 30.5621 48.7041 31.3085 48.7041C32.0548 48.7041 32.7706 49.0002 33.2988 49.5276L43.3989 59.6212L67.1854 34.3438C67.6973 33.8007 68.4037 33.4829 69.1496 33.4602C69.8955 33.4374 70.62 33.7116 71.1639 34.2224L72.8975 35.8585C73.4412 36.3704 73.7594 37.0773 73.7822 37.8237C73.8049 38.5701 73.5304 39.2951 73.0188 39.8392L45.5724 69.0214C45.314 69.2968 45.0028 69.5174 44.6574 69.6702C44.312 69.8229 43.9394 69.9047 43.5618 69.9105C43.1841 69.9164 42.8092 69.8462 42.4592 69.7043C42.1092 69.5623 41.7914 69.3515 41.5245 69.0842Z" fill="white"/>
</svg>
