<svg width="38" height="38" viewBox="0 0 38 38" fill="none" xmlns="http://www.w3.org/2000/svg">
<path fill-rule="evenodd" clip-rule="evenodd" d="M19 19C19 20.2598 18.4996 21.468 17.6088 22.3588C16.718 23.2496 15.5098 23.75 14.25 23.75C12.9902 23.75 11.782 23.2496 10.8912 22.3588C10.0004 21.468 9.5 20.2598 9.5 19C9.5 17.7402 10.0004 16.532 10.8912 15.6412C11.782 14.7504 12.9902 14.25 14.25 14.25C15.5098 14.25 16.718 14.7504 17.6088 15.6412C18.4996 16.532 19 17.7402 19 19ZM11.875 19C11.875 19.6299 12.1252 20.234 12.5706 20.6794C13.016 21.1248 13.6201 21.375 14.25 21.375C14.8799 21.375 15.484 21.1248 15.9294 20.6794C16.3748 20.234 16.625 19.6299 16.625 19C16.625 18.3701 16.3748 17.766 15.9294 17.3206C15.484 16.8752 14.8799 16.625 14.25 16.625C13.6201 16.625 13.016 16.8752 12.5706 17.3206C12.1252 17.766 11.875 18.3701 11.875 19ZM19 19C19 20.2598 19.5004 21.468 20.3912 22.3588C21.282 23.2496 22.4902 23.75 23.75 23.75C25.0098 23.75 26.218 23.2496 27.1088 22.3588C27.9996 21.468 28.5 20.2598 28.5 19C28.5 17.7402 27.9996 16.532 27.1088 15.6412C26.218 14.7504 25.0098 14.25 23.75 14.25C22.4902 14.25 21.282 14.7504 20.3912 15.6412C19.5004 16.532 19 17.7402 19 19ZM26.125 19C26.125 19.6299 25.8748 20.234 25.4294 20.6794C24.984 21.1248 24.3799 21.375 23.75 21.375C23.1201 21.375 22.516 21.1248 22.0706 20.6794C21.6252 20.234 21.375 19.6299 21.375 19C21.375 18.3701 21.6252 17.766 22.0706 17.3206C22.516 16.8752 23.1201 16.625 23.75 16.625C24.3799 16.625 24.984 16.8752 25.4294 17.3206C25.8748 17.766 26.125 18.3701 26.125 19ZM20.2113 26.7211C21.4449 26.4675 22.5765 25.8563 23.465 24.9636L25.1275 26.6499C23.4954 28.265 21.2961 29.1771 19 29.1911C17.8421 29.18 16.6971 28.9462 15.6275 28.5024C14.5696 28.072 13.6086 27.434 12.8012 26.6261L14.4638 24.9399C15.2065 25.6784 16.1182 26.2244 17.1198 26.5307C18.1213 26.837 19.1825 26.8942 20.2113 26.6974V26.7211Z" fill="black"/>
<path fill-rule="evenodd" clip-rule="evenodd" d="M22.5625 3.56259C22.5629 4.29961 22.3347 5.01861 21.9093 5.6205C21.4839 6.22239 20.8824 6.67754 20.1875 6.92321V7.12509H26.125C28.0147 7.12509 29.8269 7.87575 31.1631 9.21195C32.4993 10.5481 33.25 12.3604 33.25 14.2501V16.6251L35.625 19.0001V23.7501L33.25 26.1251V28.5001C33.25 30.3898 32.4993 32.202 31.1631 33.5382C29.8269 34.8744 28.0147 35.6251 26.125 35.6251H11.875C9.98533 35.6251 8.17306 34.8744 6.83686 33.5382C5.50067 32.202 4.75 30.3898 4.75 28.5001V26.1251L2.375 23.7501V19.0001L4.75 16.6251V14.2501C4.75 12.3604 5.50067 10.5481 6.83686 9.21195C8.17306 7.87575 9.98533 7.12509 11.875 7.12509H17.8125V6.92321C17.1968 6.70553 16.6528 6.3228 16.2399 5.81685C15.827 5.3109 15.5611 4.70119 15.4713 4.05435C15.3815 3.40752 15.4713 2.74844 15.7307 2.14914C15.9901 1.54985 16.4093 1.0334 16.9424 0.656224C17.4755 0.279051 18.1021 0.0556696 18.7535 0.0104902C19.405 -0.0346892 20.0564 0.100072 20.6364 0.400048C21.2165 0.700023 21.703 1.15367 22.0426 1.71142C22.3823 2.26916 22.5622 2.90954 22.5625 3.56259ZM11.875 9.50008C10.6152 9.50008 9.40704 10.0005 8.51624 10.8913C7.62544 11.7821 7.125 12.9903 7.125 14.2501V28.5001C7.125 29.7599 7.62544 30.968 8.51624 31.8588C9.40704 32.7496 10.6152 33.2501 11.875 33.2501H26.125C27.3848 33.2501 28.593 32.7496 29.4838 31.8588C30.3746 30.968 30.875 29.7599 30.875 28.5001V14.2501C30.875 12.9903 30.3746 11.7821 29.4838 10.8913C28.593 10.0005 27.3848 9.50008 26.125 9.50008H11.875Z" fill="black"/>
</svg>
