<svg width="49" height="50" viewBox="0 0 49 50" fill="none" xmlns="http://www.w3.org/2000/svg">
<rect x="9" y="12" width="30" height="28" rx="4" fill="white"/>
<rect width="49" height="50" rx="10" fill="white" fill-opacity="0.22"/>
<path d="M34 19.18L22.59 30.6L18.35 26.36L19.76 24.95L22.59 27.78L32.59 17.78L34 19.18ZM31.79 24.22C31.92 24.79 32 25.39 32 26C32 30.42 28.42 34 24 34C19.58 34 16 30.42 16 26C16 21.58 19.58 18 24 18C25.58 18 27.04 18.46 28.28 19.25L29.72 17.81C28.0464 16.6296 26.048 15.9972 24 16C18.48 16 14 20.48 14 26C14 31.52 18.48 36 24 36C29.52 36 34 31.52 34 26C34 24.81 33.78 23.67 33.4 22.61L31.79 24.22Z" fill="#20B1CE"/>
</svg>
