<svg width="22" height="22" viewBox="0 0 22 22" fill="none" xmlns="http://www.w3.org/2000/svg">
<path d="M21.7081 1.70806L15.4143 8.00056H19.0006C19.2658 8.00056 19.5201 8.10591 19.7077 8.29345C19.8952 8.48099 20.0006 8.73534 20.0006 9.00056C20.0006 9.26577 19.8952 9.52013 19.7077 9.70766C19.5201 9.8952 19.2658 10.0006 19.0006 10.0006H13.0006C12.7353 10.0006 12.481 9.8952 12.2934 9.70766C12.1059 9.52013 12.0006 9.26577 12.0006 9.00056V3.00056C12.0006 2.73534 12.1059 2.48099 12.2934 2.29345C12.481 2.10591 12.7353 2.00056 13.0006 2.00056C13.2658 2.00056 13.5201 2.10591 13.7077 2.29345C13.8952 2.48099 14.0006 2.73534 14.0006 3.00056V6.58681L20.2931 0.293056C20.4807 0.105415 20.7352 -5.23096e-09 21.0006 0C21.2659 5.23096e-09 21.5204 0.105415 21.7081 0.293056C21.8957 0.480697 22.0011 0.735192 22.0011 1.00056C22.0011 1.26592 21.8957 1.52042 21.7081 1.70806ZM9.00056 12.0006H3.00056C2.73534 12.0006 2.48099 12.1059 2.29345 12.2934C2.10591 12.481 2.00056 12.7353 2.00056 13.0006C2.00056 13.2658 2.10591 13.5201 2.29345 13.7077C2.48099 13.8952 2.73534 14.0006 3.00056 14.0006H6.58681L0.293056 20.2931C0.105415 20.4807 -5.23096e-09 20.7352 0 21.0006C5.23096e-09 21.2659 0.105415 21.5204 0.293056 21.7081C0.480697 21.8957 0.735192 22.0011 1.00056 22.0011C1.26592 22.0011 1.52042 21.8957 1.70806 21.7081L8.00056 15.4143V19.0006C8.00056 19.2658 8.10591 19.5201 8.29345 19.7077C8.48099 19.8952 8.73534 20.0006 9.00056 20.0006C9.26577 20.0006 9.52013 19.8952 9.70766 19.7077C9.8952 19.5201 10.0006 19.2658 10.0006 19.0006V13.0006C10.0006 12.7353 9.8952 12.481 9.70766 12.2934C9.52013 12.1059 9.26577 12.0006 9.00056 12.0006Z" fill="white"/>
</svg>
