<svg width="21" height="20" viewBox="0 0 21 20" fill="none" xmlns="http://www.w3.org/2000/svg">
<g clip-path="url(#clip0_29_538)">
<path d="M20.75 10C20.75 4.47719 16.2728 0 10.75 0C5.22719 0 0.75 4.47719 0.75 10C0.75 14.9913 4.40687 19.1284 9.1875 19.8785V12.8906H6.64844V10H9.1875V7.79688C9.1875 5.29063 10.6805 3.90625 12.9647 3.90625C14.0588 3.90625 15.2031 4.10156 15.2031 4.10156V6.5625H13.9422C12.6999 6.5625 12.3125 7.33336 12.3125 8.12422V10H15.0859L14.6426 12.8906H12.3125V19.8785C17.0931 19.1284 20.75 14.9913 20.75 10Z" fill="#1877F2"/>
<path d="M14.6426 12.8906L15.0859 10H12.3125V8.12422C12.3125 7.33328 12.6999 6.5625 13.9422 6.5625H15.2031V4.10156C15.2031 4.10156 14.0588 3.90625 12.9646 3.90625C10.6805 3.90625 9.1875 5.29063 9.1875 7.79688V10H6.64844V12.8906H9.1875V19.8785C9.70439 19.9595 10.2268 20.0001 10.75 20C11.2732 20.0001 11.7956 19.9595 12.3125 19.8785V12.8906H14.6426Z" fill="white"/>
</g>
<defs>
<clipPath id="clip0_29_538">
<rect width="20" height="20" fill="white" transform="translate(0.75)"/>
</clipPath>
</defs>
</svg>
