<svg width="12" height="13" viewBox="0 0 12 13" fill="none" xmlns="http://www.w3.org/2000/svg">
<path d="M0.0234375 7.82463V10.2022C0.0234375 10.3722 0.139219 10.5207 0.304242 10.5613C4.03463 11.4778 7.76501 9.54082 11.4954 10.373C11.7258 10.4244 11.9442 10.248 11.9442 10.012V7.82463C7.9706 6.69204 3.99703 8.95723 0.0234375 7.82463Z" fill="#FF473E"/>
<path d="M0.0234375 5.16252V7.82469C3.99703 8.95729 7.9706 6.6921 11.9442 7.82469V5.16252C7.9706 4.02993 3.99703 6.29512 0.0234375 5.16252Z" fill="#0B67B2"/>
<path d="M0.0234375 2.87174V5.16254C3.99703 6.29513 7.9706 4.02995 11.9442 5.16254V2.68145C11.9442 2.5115 11.8284 2.36298 11.6634 2.32243C7.93301 1.40588 4.20262 3.34288 0.472242 2.51073C0.241852 2.45935 0.0234375 2.63567 0.0234375 2.87174Z" fill="#E8E8E8"/>
</svg>
