<svg width="19" height="18" viewBox="0 0 19 18" fill="none" xmlns="http://www.w3.org/2000/svg">
<g clip-path="url(#clip0_29_524)">
<path d="M15.0625 -1H4.4375C1.84867 -1 -0.25 1.09867 -0.25 3.6875V14.3125C-0.25 16.9013 1.84867 19 4.4375 19H15.0625C17.6513 19 19.75 16.9013 19.75 14.3125V3.6875C19.75 1.09867 17.6513 -1 15.0625 -1Z" fill="url(#paint0_radial_29_524)"/>
<path d="M15.0625 -1H4.4375C1.84867 -1 -0.25 1.09867 -0.25 3.6875V14.3125C-0.25 16.9013 1.84867 19 4.4375 19H15.0625C17.6513 19 19.75 16.9013 19.75 14.3125V3.6875C19.75 1.09867 17.6513 -1 15.0625 -1Z" fill="url(#paint1_radial_29_524)"/>
<path d="M9.7507 1.1875C7.62898 1.1875 7.36266 1.1968 6.52938 1.23469C5.69766 1.27281 5.12992 1.40445 4.6332 1.59766C4.1193 1.79719 3.68344 2.06414 3.24922 2.49852C2.81461 2.93281 2.54766 3.36867 2.3475 3.88234C2.15375 4.37922 2.02195 4.94719 1.98453 5.77852C1.94727 6.61188 1.9375 6.87828 1.9375 9.00008C1.9375 11.1219 1.94688 11.3873 1.98469 12.2206C2.02297 13.0523 2.15461 13.6201 2.34766 14.1168C2.54734 14.6307 2.8143 15.0666 3.24867 15.5008C3.68281 15.9354 4.11867 16.203 4.63219 16.4025C5.1293 16.5957 5.69711 16.7273 6.52867 16.7655C7.36203 16.8034 7.62813 16.8127 9.74977 16.8127C11.8717 16.8127 12.1372 16.8034 12.9705 16.7655C13.8022 16.7273 14.3705 16.5957 14.8677 16.4025C15.3813 16.203 15.8166 15.9354 16.2506 15.5008C16.6852 15.0666 16.9521 14.6307 17.1523 14.117C17.3444 13.6201 17.4762 13.0522 17.5153 12.2208C17.5527 11.3875 17.5625 11.1219 17.5625 9.00008C17.5625 6.87828 17.5527 6.61203 17.5153 5.77867C17.4762 4.94695 17.3444 4.3793 17.1523 3.88258C16.9521 3.36867 16.6852 2.93281 16.2506 2.49852C15.8161 2.06398 15.3815 1.79703 14.8672 1.59773C14.3691 1.40445 13.8011 1.27273 12.9694 1.23469C12.136 1.1968 11.8707 1.1875 9.74828 1.1875H9.7507ZM9.04984 2.59539C9.25789 2.59508 9.49 2.59539 9.7507 2.59539C11.8367 2.59539 12.0839 2.60289 12.9077 2.64031C13.6694 2.67516 14.0828 2.80242 14.3582 2.90938C14.7228 3.05094 14.9827 3.22023 15.256 3.49375C15.5295 3.76719 15.6987 4.02758 15.8406 4.39219C15.9476 4.66719 16.075 5.08063 16.1097 5.84234C16.1471 6.66594 16.1552 6.91328 16.1552 8.99828C16.1552 11.0833 16.1471 11.3307 16.1097 12.1542C16.0748 12.9159 15.9476 13.3294 15.8406 13.6045C15.6991 13.9691 15.5295 14.2287 15.256 14.502C14.9826 14.7754 14.723 14.9446 14.3582 15.0863C14.0831 15.1937 13.6694 15.3206 12.9077 15.3555C12.0841 15.3929 11.8367 15.401 9.7507 15.401C7.66461 15.401 7.41734 15.3929 6.59383 15.3555C5.83211 15.3203 5.41867 15.193 5.14305 15.0861C4.77852 14.9445 4.51805 14.7752 4.24461 14.5018C3.97117 14.2284 3.80195 13.9686 3.66 13.6038C3.55305 13.3287 3.42562 12.9153 3.39094 12.1536C3.35352 11.33 3.34602 11.0827 3.34602 8.99633C3.34602 6.91 3.35352 6.66398 3.39094 5.84039C3.42578 5.07867 3.55305 4.66523 3.66 4.38984C3.80164 4.02523 3.97117 3.76484 4.24469 3.49141C4.5182 3.21797 4.77852 3.04867 5.14312 2.9068C5.41852 2.79938 5.83211 2.67242 6.59383 2.63742C7.31453 2.60484 7.59383 2.59508 9.04984 2.59344V2.59539ZM13.921 3.89258C13.4034 3.89258 12.9835 4.31211 12.9835 4.82977C12.9835 5.34734 13.4034 5.76727 13.921 5.76727C14.4386 5.76727 14.8585 5.34734 14.8585 4.82977C14.8585 4.31219 14.4386 3.89227 13.921 3.89227V3.89258ZM9.7507 4.98797C7.53508 4.98797 5.73867 6.78438 5.73867 9.00008C5.73867 11.2158 7.53508 13.0113 9.7507 13.0113C11.9664 13.0113 13.7622 11.2158 13.7622 9.00008C13.7622 6.78445 11.9663 4.98797 9.75055 4.98797H9.7507ZM9.7507 6.39586C11.1889 6.39586 12.3549 7.56172 12.3549 9.00008C12.3549 10.4383 11.1889 11.6043 9.7507 11.6043C8.3125 11.6043 7.14656 10.4383 7.14656 9.00008C7.14656 7.56172 8.31242 6.39586 9.7507 6.39586Z" fill="white"/>
</g>
<defs>
<radialGradient id="paint0_radial_29_524" cx="0" cy="0" r="1" gradientUnits="userSpaceOnUse" gradientTransform="translate(5.0625 20.5404) rotate(-90) scale(19.8215 18.4355)">
<stop stop-color="#FFDD55"/>
<stop offset="0.1" stop-color="#FFDD55"/>
<stop offset="0.5" stop-color="#FF543E"/>
<stop offset="1" stop-color="#C837AB"/>
</radialGradient>
<radialGradient id="paint1_radial_29_524" cx="0" cy="0" r="1" gradientUnits="userSpaceOnUse" gradientTransform="translate(-3.60008 0.440703) rotate(78.681) scale(8.86031 36.5225)">
<stop stop-color="#3771C8"/>
<stop offset="0.128" stop-color="#3771C8"/>
<stop offset="1" stop-color="#6600FF" stop-opacity="0"/>
</radialGradient>
<clipPath id="clip0_29_524">
<rect width="18" height="18" fill="white" transform="translate(0.75)"/>
</clipPath>
</defs>
</svg>
