<svg width="20" height="20" viewBox="0 0 20 20" fill="none" xmlns="http://www.w3.org/2000/svg">
<g clip-path="url(#clip0_2551_3940)">
<path d="M9.09938 2.39024C9.19108 2.23288 9.32245 2.1023 9.48036 2.01155C9.63828 1.9208 9.81724 1.87305 9.99938 1.87305C10.1815 1.87305 10.3605 1.9208 10.5184 2.01155C10.6763 2.1023 10.8077 2.23288 10.8994 2.39024L13.2285 6.38858L17.7519 7.36858C17.9298 7.40724 18.0945 7.49187 18.2295 7.61402C18.3645 7.73617 18.4652 7.89158 18.5214 8.06476C18.5777 8.23794 18.5875 8.42283 18.55 8.60101C18.5125 8.77919 18.429 8.94442 18.3077 9.08024L15.2244 12.5311L15.691 17.1352C15.7095 17.3165 15.68 17.4995 15.6056 17.6658C15.5312 17.8322 15.4144 17.9761 15.267 18.0832C15.1196 18.1903 14.9466 18.2569 14.7654 18.2762C14.5842 18.2956 14.4011 18.2671 14.2344 18.1936L9.99938 16.3269L5.76438 18.1936C5.59764 18.2671 5.41454 18.2956 5.23334 18.2762C5.05214 18.2569 4.8792 18.1903 4.73177 18.0832C4.58434 17.9761 4.4676 17.8322 4.39318 17.6658C4.31877 17.4995 4.2893 17.3165 4.30771 17.1352L4.77438 12.5311L1.69104 9.08108C1.56957 8.94526 1.48584 8.77996 1.44822 8.60168C1.4106 8.42339 1.42041 8.23835 1.47666 8.06504C1.53292 7.89173 1.63365 7.7362 1.7688 7.61399C1.90395 7.49178 2.0688 7.40716 2.24688 7.36858L6.77021 6.38858L9.09938 2.39024Z" fill="#FFE600"/>
</g>
<defs>
<clipPath id="clip0_2551_3940">
<rect width="20" height="20" fill="white"/>
</clipPath>
</defs>
</svg>
