<svg width="13" height="12" viewBox="0 0 13 12" fill="none" xmlns="http://www.w3.org/2000/svg">
<path d="M6.5 11C5.81667 11 5.17083 10.8687 4.5625 10.6062C3.95417 10.3438 3.42292 9.98542 2.96875 9.53125C2.51458 9.07708 2.15625 8.54583 1.89375 7.9375C1.63125 7.32917 1.5 6.68333 1.5 6C1.5 5.30833 1.63125 4.66042 1.89375 4.05625C2.15625 3.45208 2.51458 2.92292 2.96875 2.46875C3.42292 2.01458 3.95417 1.65625 4.5625 1.39375C5.17083 1.13125 5.81667 1 6.5 1C7.19167 1 7.83958 1.13125 8.44375 1.39375C9.04792 1.65625 9.57708 2.01458 10.0312 2.46875C10.4854 2.92292 10.8438 3.45208 11.1062 4.05625C11.3687 4.66042 11.5 5.30833 11.5 6C11.5 6.68333 11.3687 7.32917 11.1062 7.9375C10.8438 8.54583 10.4854 9.07708 10.0312 9.53125C9.57708 9.98542 9.04792 10.3438 8.44375 10.6062C7.83958 10.8687 7.19167 11 6.5 11ZM6.5 9.975C6.71667 9.675 6.90417 9.3625 7.0625 9.0375C7.22083 8.7125 7.35 8.36667 7.45 8H5.55C5.65 8.36667 5.77917 8.7125 5.9375 9.0375C6.09583 9.3625 6.28333 9.675 6.5 9.975ZM5.2 9.775C5.05 9.5 4.91875 9.21458 4.80625 8.91875C4.69375 8.62292 4.6 8.31667 4.525 8H3.05C3.29167 8.41667 3.59375 8.77917 3.95625 9.0875C4.31875 9.39583 4.73333 9.625 5.2 9.775ZM7.8 9.775C8.26667 9.625 8.68125 9.39583 9.04375 9.0875C9.40625 8.77917 9.70833 8.41667 9.95 8H8.475C8.4 8.31667 8.30625 8.62292 8.19375 8.91875C8.08125 9.21458 7.95 9.5 7.8 9.775ZM2.625 7H4.325C4.3 6.83333 4.28125 6.66875 4.26875 6.50625C4.25625 6.34375 4.25 6.175 4.25 6C4.25 5.825 4.25625 5.65625 4.26875 5.49375C4.28125 5.33125 4.3 5.16667 4.325 5H2.625C2.58333 5.16667 2.55208 5.33125 2.53125 5.49375C2.51042 5.65625 2.5 5.825 2.5 6C2.5 6.175 2.51042 6.34375 2.53125 6.50625C2.55208 6.66875 2.58333 6.83333 2.625 7ZM5.325 7H7.675C7.7 6.83333 7.71875 6.66875 7.73125 6.50625C7.74375 6.34375 7.75 6.175 7.75 6C7.75 5.825 7.74375 5.65625 7.73125 5.49375C7.71875 5.33125 7.7 5.16667 7.675 5H5.325C5.3 5.16667 5.28125 5.33125 5.26875 5.49375C5.25625 5.65625 5.25 5.825 5.25 6C5.25 6.175 5.25625 6.34375 5.26875 6.50625C5.28125 6.66875 5.3 6.83333 5.325 7ZM8.675 7H10.375C10.4167 6.83333 10.4479 6.66875 10.4688 6.50625C10.4896 6.34375 10.5 6.175 10.5 6C10.5 5.825 10.4896 5.65625 10.4688 5.49375C10.4479 5.33125 10.4167 5.16667 10.375 5H8.675C8.7 5.16667 8.71875 5.33125 8.73125 5.49375C8.74375 5.65625 8.75 5.825 8.75 6C8.75 6.175 8.74375 6.34375 8.73125 6.50625C8.71875 6.66875 8.7 6.83333 8.675 7ZM8.475 4H9.95C9.70833 3.58333 9.40625 3.22083 9.04375 2.9125C8.68125 2.60417 8.26667 2.375 7.8 2.225C7.95 2.5 8.08125 2.78542 8.19375 3.08125C8.30625 3.37708 8.4 3.68333 8.475 4ZM5.55 4H7.45C7.35 3.63333 7.22083 3.2875 7.0625 2.9625C6.90417 2.6375 6.71667 2.325 6.5 2.025C6.28333 2.325 6.09583 2.6375 5.9375 2.9625C5.77917 3.2875 5.65 3.63333 5.55 4ZM3.05 4H4.525C4.6 3.68333 4.69375 3.37708 4.80625 3.08125C4.91875 2.78542 5.05 2.5 5.2 2.225C4.73333 2.375 4.31875 2.60417 3.95625 2.9125C3.59375 3.22083 3.29167 3.58333 3.05 4Z" fill="black"/>
</svg>
