<svg width="32" height="32" viewBox="0 0 32 32" fill="none" xmlns="http://www.w3.org/2000/svg">
<path d="M22.2075 12.5855L19.4144 9.79297C19.3215 9.70009 19.2113 9.62641 19.0899 9.57614C18.9686 9.52587 18.8385 9.5 18.7072 9.5C18.5759 9.5 18.4458 9.52587 18.3245 9.57614C18.2031 9.62641 18.0929 9.70009 18 9.79297L10.2931 17.4998C10.1999 17.5924 10.1259 17.7025 10.0756 17.8239C10.0253 17.9452 9.99959 18.0754 10 18.2067V20.9998C10 21.2651 10.1054 21.5194 10.2929 21.707C10.4804 21.8945 10.7348 21.9998 11 21.9998H21.5C21.6326 21.9998 21.7598 21.9472 21.8536 21.8534C21.9473 21.7596 22 21.6325 22 21.4998C22 21.3672 21.9473 21.2401 21.8536 21.1463C21.7598 21.0525 21.6326 20.9998 21.5 20.9998H15.2075L22.2075 13.9998C22.3004 13.907 22.3741 13.7967 22.4243 13.6754C22.4746 13.5541 22.5005 13.424 22.5005 13.2927C22.5005 13.1613 22.4746 13.0313 22.4243 12.9099C22.3741 12.7886 22.3004 12.6783 22.2075 12.5855ZM16.5 12.7067L17.5431 13.7498L12.25 19.043L11.2069 17.9998L16.5 12.7067ZM11 20.9998V19.2067L12.7931 20.9998H11ZM14 20.793L12.9575 19.7498L18.25 14.4567L19.2931 15.4998L14 20.793ZM20 14.793L17.2075 11.9998L18.7075 10.4998L21.5 13.293L20 14.793Z" fill="#001B61"/>
</svg>
