<svg width="41" height="40" viewBox="0 0 41 40" fill="none" xmlns="http://www.w3.org/2000/svg">
<path d="M4.59863 20C4.59863 23.2139 5.55168 26.3557 7.33725 29.028C9.12282 31.7003 11.6607 33.7831 14.63 35.013C17.5993 36.243 20.8667 36.5648 24.0189 35.9378C27.171 35.3107 30.0665 33.7631 32.3391 31.4905C34.6117 29.2179 36.1594 26.3224 36.7864 23.1702C37.4134 20.018 37.0916 16.7507 35.8617 13.7814C34.6317 10.8121 32.5489 8.27418 29.8766 6.48861C27.2043 4.70304 24.0626 3.74999 20.8486 3.74999C16.5403 3.75454 12.4097 5.46805 9.36317 8.51453C6.31669 11.561 4.60318 15.6916 4.59863 20ZM34.5986 20C34.5986 22.7195 33.7922 25.3779 32.2813 27.6391C30.7705 29.9003 28.623 31.6626 26.1105 32.7033C23.598 33.744 20.8334 34.0163 18.1661 33.4858C15.4989 32.9552 13.0489 31.6457 11.1259 29.7227C9.20294 27.7997 7.89338 25.3497 7.36283 22.6825C6.83229 20.0152 7.10458 17.2506 8.14529 14.7381C9.18599 12.2256 10.9484 10.0782 13.2095 8.56728C15.4707 7.05641 18.1291 6.24999 20.8486 6.24999C24.4941 6.25413 27.9891 7.70411 30.5668 10.2818C33.1445 12.8596 34.5945 16.3545 34.5986 20ZM20.8486 12.5C21.1802 12.5 21.4981 12.6317 21.7325 12.8661C21.9669 13.1005 22.0986 13.4185 22.0986 13.75L22.0986 18.75L27.0986 18.75C27.4302 18.75 27.7481 18.8817 27.9825 19.1161C28.2169 19.3505 28.3486 19.6685 28.3486 20C28.3486 20.3315 28.2169 20.6495 27.9825 20.8839C27.7481 21.1183 27.4302 21.25 27.0986 21.25L22.0986 21.25L22.0986 26.25C22.0986 26.5815 21.9669 26.8995 21.7325 27.1339C21.4981 27.3683 21.1802 27.5 20.8486 27.5C20.5171 27.5 20.1992 27.3683 19.9647 27.1339C19.7303 26.8995 19.5986 26.5815 19.5986 26.25L19.5986 21.25L14.5986 21.25C14.2671 21.25 13.9492 21.1183 13.7147 20.8839C13.4803 20.6495 13.3486 20.3315 13.3486 20C13.3486 19.6685 13.4803 19.3505 13.7147 19.1161C13.9492 18.8817 14.2671 18.75 14.5986 18.75L19.5986 18.75L19.5986 13.75C19.5986 13.4185 19.7303 13.1005 19.9647 12.8661C20.1992 12.6317 20.5171 12.5 20.8486 12.5Z" fill="white"/>
</svg>
