<svg width="17" height="17" viewBox="0 0 17 17" fill="none" xmlns="http://www.w3.org/2000/svg">
<path d="M16.375 8.5C16.375 8.67405 16.3059 8.84097 16.1828 8.96404C16.0597 9.08711 15.8928 9.15625 15.7188 9.15625H9.15625V15.7188C9.15625 15.8928 9.08711 16.0597 8.96404 16.1828C8.84097 16.3059 8.67405 16.375 8.5 16.375C8.32595 16.375 8.15903 16.3059 8.03596 16.1828C7.91289 16.0597 7.84375 15.8928 7.84375 15.7188V9.15625H1.28125C1.1072 9.15625 0.940282 9.08711 0.817211 8.96404C0.694141 8.84097 0.625 8.67405 0.625 8.5C0.625 8.32595 0.694141 8.15903 0.817211 8.03596C0.940282 7.91289 1.1072 7.84375 1.28125 7.84375H7.84375V1.28125C7.84375 1.1072 7.91289 0.940282 8.03596 0.817211C8.15903 0.694141 8.32595 0.625 8.5 0.625C8.67405 0.625 8.84097 0.694141 8.96404 0.817211C9.08711 0.940282 9.15625 1.1072 9.15625 1.28125V7.84375H15.7188C15.8928 7.84375 16.0597 7.91289 16.1828 8.03596C16.3059 8.15903 16.375 8.32595 16.375 8.5Z" fill="white"/>
</svg>
