<svg width="49" height="50" viewBox="0 0 49 50" fill="none" xmlns="http://www.w3.org/2000/svg">
<rect width="49" height="50" rx="10" fill="white" fill-opacity="0.22"/>
<rect x="9" y="12" width="30" height="28" rx="4" fill="white"/>
<path d="M15 34C15 35.103 15.897 36 17 36H31C32.103 36 33 35.103 33 34V19C33 17.897 32.103 17 31 17H29C29 16.7348 28.8946 16.4804 28.7071 16.2929C28.5196 16.1054 28.2652 16 28 16H20C19.7348 16 19.4804 16.1054 19.2929 16.2929C19.1054 16.4804 19 16.7348 19 17H17C15.897 17 15 17.897 15 19V34ZM17 19H19V21H29V19H31V34H17V19Z" fill="#F9A166"/>
<path d="M26.292 24.295L24 26.587L21.708 24.295L20.294 25.709L22.586 28.001L20.294 30.293L21.708 31.707L24 29.415L26.292 31.707L27.706 30.293L25.414 28.001L27.706 25.709L26.292 24.295Z" fill="#F9A166"/>
</svg>
