<svg width="55" height="55" viewBox="0 0 55 55" fill="none" xmlns="http://www.w3.org/2000/svg">
<path d="M5.41367 24.6661C6.10397 24.6669 6.76792 24.9312 7.26987 25.4051C7.77182 25.879 8.07388 26.5266 8.11434 27.2157C8.15479 27.9049 7.93059 28.5834 7.48753 29.1128C7.04448 29.6421 6.41601 29.9823 5.73054 30.0638L5.41367 30.0828H2.70533C2.01503 30.082 1.35108 29.8177 0.849127 29.3438C0.347175 28.87 0.0451131 28.2223 0.00465843 27.5332C-0.0357963 26.8441 0.18841 26.1655 0.631467 25.6362C1.07452 25.1068 1.70299 24.7666 2.38846 24.6851L2.70533 24.6661H5.41367ZM27.0803 0.291138C27.7437 0.291225 28.384 0.534769 28.8797 0.975575C29.3754 1.41638 29.6921 2.02379 29.7697 2.6826L29.7887 2.99947V5.7078C29.7879 6.3981 29.5236 7.06206 29.0497 7.56401C28.5758 8.06596 27.9282 8.36802 27.2391 8.40848C26.5499 8.44893 25.8714 8.22473 25.342 7.78167C24.8127 7.33861 24.4725 6.71015 24.391 6.02468L24.372 5.7078V2.99947C24.372 2.28118 24.6573 1.5923 25.1653 1.08439C25.6732 0.576479 26.362 0.291138 27.0803 0.291138ZM51.4553 24.6661C52.1456 24.6669 52.8096 24.9312 53.3115 25.4051C53.8135 25.879 54.1155 26.5266 54.156 27.2157C54.1965 27.9049 53.9723 28.5834 53.5292 29.1128C53.0861 29.6421 52.4577 29.9823 51.7722 30.0638L51.4553 30.0828H48.747C48.0567 30.082 47.3927 29.8177 46.8908 29.3438C46.3888 28.87 46.0868 28.2223 46.0463 27.5332C46.0059 26.8441 46.2301 26.1655 46.6731 25.6362C47.1162 25.1068 47.7447 24.7666 48.4301 24.6851L48.747 24.6661H51.4553ZM7.83221 8.12635C8.29856 7.66004 8.91904 7.37991 9.57724 7.33852C10.2354 7.29714 10.8861 7.49733 11.4072 7.90155L11.6618 8.12635L13.5576 10.0222C14.0434 10.5096 14.3254 11.1636 14.3464 11.8513C14.3674 12.5391 14.1258 13.2091 13.6707 13.7252C13.2156 14.2413 12.5811 14.5649 11.8961 14.6301C11.2111 14.6954 10.527 14.4975 9.98262 14.0766L9.72804 13.8518L7.83221 11.9559C7.32447 11.448 7.03924 10.7593 7.03924 10.0411C7.03924 9.32298 7.32447 8.63423 7.83221 8.12635ZM42.4989 8.12635C42.9863 7.64061 43.6403 7.35861 44.328 7.3376C45.0158 7.3166 45.6858 7.55818 46.2019 8.01327C46.718 8.46836 47.0416 9.10284 47.1068 9.78784C47.1721 10.4728 46.9742 11.157 46.5532 11.7013L46.3285 11.9559L44.4326 13.8518C43.9452 14.3375 43.2912 14.6195 42.6035 14.6405C41.9157 14.6615 41.2457 14.4199 40.7296 13.9648C40.2135 13.5097 39.8899 12.8753 39.8247 12.1903C39.7594 11.5053 39.9573 10.8211 40.3782 10.2768L40.603 10.0222L42.4989 8.12635ZM32.497 43.6245C33.2153 43.6245 33.9042 43.9098 34.4121 44.4177C34.92 44.9256 35.2053 45.6145 35.2053 46.3328C35.2053 48.4877 34.3493 50.5543 32.8256 52.0781C31.3018 53.6018 29.2352 54.4578 27.0803 54.4578C24.9254 54.4578 22.8588 53.6018 21.3351 52.0781C19.8114 50.5543 18.9553 48.4877 18.9553 46.3328C18.9554 45.6694 19.199 45.0292 19.6398 44.5335C20.0806 44.0377 20.688 43.721 21.3468 43.6434L21.6637 43.6245H32.497ZM27.0803 11.1245C30.4909 11.1245 33.8151 12.1976 36.5819 14.1918C39.3487 16.186 41.4179 19.0002 42.4964 22.2358C43.575 25.4713 43.6081 28.9642 42.5912 32.2197C41.5742 35.4752 39.5588 38.3281 36.8303 40.3745C36.4571 40.6549 36.0176 40.834 35.5547 40.8945L35.2053 40.9161H18.9553C18.3693 40.9161 17.7991 40.7261 17.3303 40.3745C14.6019 38.3281 12.5864 35.4752 11.5695 32.2197C10.5526 28.9642 10.5857 25.4713 11.6642 22.2358C12.7428 19.0002 14.812 16.186 17.5788 14.1918C20.3456 12.1976 23.6697 11.1245 27.0803 11.1245Z" fill="#FDD567"/>
</svg>
