<svg width="126" height="126" viewBox="0 0 126 126" fill="none" xmlns="http://www.w3.org/2000/svg">
<rect width="126" height="126" rx="63" fill="#CAA77F" fill-opacity="0.4"/>
<circle cx="63" cy="63" r="51" fill="#CAA77F" fill-opacity="0.6"/>
<circle cx="63" cy="63" r="38" fill="#CAA77F"/>
<path fill-rule="evenodd" clip-rule="evenodd" d="M63 63C63 64.2598 62.4996 65.468 61.6088 66.3588C60.718 67.2496 59.5098 67.75 58.25 67.75C56.9902 67.75 55.782 67.2496 54.8912 66.3588C54.0004 65.468 53.5 64.2598 53.5 63C53.5 61.7402 54.0004 60.532 54.8912 59.6412C55.782 58.7504 56.9902 58.25 58.25 58.25C59.5098 58.25 60.718 58.7504 61.6088 59.6412C62.4996 60.532 63 61.7402 63 63ZM55.875 63C55.875 63.6299 56.1252 64.234 56.5706 64.6794C57.016 65.1248 57.6201 65.375 58.25 65.375C58.8799 65.375 59.484 65.1248 59.9294 64.6794C60.3748 64.234 60.625 63.6299 60.625 63C60.625 62.3701 60.3748 61.766 59.9294 61.3206C59.484 60.8752 58.8799 60.625 58.25 60.625C57.6201 60.625 57.016 60.8752 56.5706 61.3206C56.1252 61.766 55.875 62.3701 55.875 63ZM63 63C63 64.2598 63.5004 65.468 64.3912 66.3588C65.282 67.2496 66.4902 67.75 67.75 67.75C69.0098 67.75 70.218 67.2496 71.1088 66.3588C71.9996 65.468 72.5 64.2598 72.5 63C72.5 61.7402 71.9996 60.532 71.1088 59.6412C70.218 58.7504 69.0098 58.25 67.75 58.25C66.4902 58.25 65.282 58.7504 64.3912 59.6412C63.5004 60.532 63 61.7402 63 63ZM70.125 63C70.125 63.6299 69.8748 64.234 69.4294 64.6794C68.984 65.1248 68.3799 65.375 67.75 65.375C67.1201 65.375 66.516 65.1248 66.0706 64.6794C65.6252 64.234 65.375 63.6299 65.375 63C65.375 62.3701 65.6252 61.766 66.0706 61.3206C66.516 60.8752 67.1201 60.625 67.75 60.625C68.3799 60.625 68.984 60.8752 69.4294 61.3206C69.8748 61.766 70.125 62.3701 70.125 63ZM64.2113 70.7211C65.4449 70.4675 66.5765 69.8563 67.465 68.9636L69.1275 70.6499C67.4954 72.265 65.2961 73.1771 63 73.1911C61.8421 73.18 60.6971 72.9462 59.6275 72.5024C58.5696 72.072 57.6086 71.434 56.8012 70.6261L58.4638 68.9399C59.2065 69.6784 60.1182 70.2244 61.1198 70.5307C62.1213 70.837 63.1825 70.8942 64.2113 70.6974V70.7211Z" fill="black"/>
<path fill-rule="evenodd" clip-rule="evenodd" d="M66.5625 47.5626C66.5629 48.2996 66.3347 49.0186 65.9093 49.6205C65.4839 50.2224 64.8824 50.6775 64.1875 50.9232V51.1251H70.125C72.0147 51.1251 73.8269 51.8758 75.1631 53.2119C76.4993 54.5481 77.25 56.3604 77.25 58.2501V60.6251L79.625 63.0001V67.7501L77.25 70.1251V72.5001C77.25 74.3898 76.4993 76.202 75.1631 77.5382C73.8269 78.8744 72.0147 79.6251 70.125 79.6251H55.875C53.9853 79.6251 52.1731 78.8744 50.8369 77.5382C49.5007 76.202 48.75 74.3898 48.75 72.5001V70.1251L46.375 67.7501V63.0001L48.75 60.6251V58.2501C48.75 56.3604 49.5007 54.5481 50.8369 53.2119C52.1731 51.8758 53.9853 51.1251 55.875 51.1251H61.8125V50.9232C61.1968 50.7055 60.6528 50.3228 60.2399 49.8168C59.827 49.3109 59.5611 48.7012 59.4713 48.0544C59.3815 47.4075 59.4713 46.7484 59.7307 46.1491C59.9901 45.5498 60.4093 45.0334 60.9424 44.6562C61.4755 44.2791 62.1021 44.0557 62.7535 44.0105C63.405 43.9653 64.0564 44.1001 64.6364 44.4C65.2165 44.7 65.703 45.1537 66.0426 45.7114C66.3823 46.2692 66.5622 46.9095 66.5625 47.5626ZM55.875 53.5001C54.6152 53.5001 53.407 54.0005 52.5162 54.8913C51.6254 55.7821 51.125 56.9903 51.125 58.2501V72.5001C51.125 73.7599 51.6254 74.968 52.5162 75.8588C53.407 76.7496 54.6152 77.2501 55.875 77.2501H70.125C71.3848 77.2501 72.593 76.7496 73.4838 75.8588C74.3746 74.968 74.875 73.7599 74.875 72.5001V58.2501C74.875 56.9903 74.3746 55.7821 73.4838 54.8913C72.593 54.0005 71.3848 53.5001 70.125 53.5001H55.875Z" fill="black"/>
</svg>
