<svg width="18" height="18" viewBox="0 0 18 18" fill="none" xmlns="http://www.w3.org/2000/svg">
<path d="M6.70833 17.3346L6.375 14.668C6.19444 14.5985 6.02431 14.5152 5.86458 14.418C5.70486 14.3207 5.54861 14.2166 5.39583 14.1055L2.91667 15.1471L0.625 11.1888L2.77083 9.5638C2.75694 9.46658 2.75 9.37283 2.75 9.28255V8.72005C2.75 8.62977 2.75694 8.53602 2.77083 8.4388L0.625 6.8138L2.91667 2.85547L5.39583 3.89714C5.54861 3.78602 5.70833 3.68186 5.875 3.58464C6.04167 3.48741 6.20833 3.40408 6.375 3.33464L6.70833 0.667969H11.2917L11.625 3.33464C11.8056 3.40408 11.9757 3.48741 12.1354 3.58464C12.2951 3.68186 12.4514 3.78602 12.6042 3.89714L15.0833 2.85547L17.375 6.8138L15.2292 8.4388C15.2431 8.53602 15.25 8.62977 15.25 8.72005V9.28255C15.25 9.37283 15.2361 9.46658 15.2083 9.5638L17.3542 11.1888L15.0625 15.1471L12.6042 14.1055C12.4514 14.2166 12.2917 14.3207 12.125 14.418C11.9583 14.5152 11.7917 14.5985 11.625 14.668L11.2917 17.3346H6.70833ZM8.16667 15.668H9.8125L10.1042 13.4596C10.5347 13.3485 10.934 13.1853 11.3021 12.9701C11.6701 12.7548 12.0069 12.4944 12.3125 12.1888L14.375 13.043L15.1875 11.6263L13.3958 10.2721C13.4653 10.0777 13.5139 9.87283 13.5417 9.65755C13.5694 9.44228 13.5833 9.22352 13.5833 9.0013C13.5833 8.77908 13.5694 8.56033 13.5417 8.34505C13.5139 8.12978 13.4653 7.92491 13.3958 7.73047L15.1875 6.3763L14.375 4.95964L12.3125 5.83464C12.0069 5.51519 11.6701 5.24783 11.3021 5.03255C10.934 4.81727 10.5347 4.65408 10.1042 4.54297L9.83333 2.33464H8.1875L7.89583 4.54297C7.46528 4.65408 7.06597 4.81727 6.69792 5.03255C6.32986 5.24783 5.99306 5.50825 5.6875 5.8138L3.625 4.95964L2.8125 6.3763L4.60417 7.70964C4.53472 7.91797 4.48611 8.1263 4.45833 8.33464C4.43056 8.54297 4.41667 8.76519 4.41667 9.0013C4.41667 9.22352 4.43056 9.4388 4.45833 9.64714C4.48611 9.85547 4.53472 10.0638 4.60417 10.2721L2.8125 11.6263L3.625 13.043L5.6875 12.168C5.99306 12.4874 6.32986 12.7548 6.69792 12.9701C7.06597 13.1853 7.46528 13.3485 7.89583 13.4596L8.16667 15.668ZM9.04167 11.918C9.84722 11.918 10.5347 11.6332 11.1042 11.0638C11.6736 10.4944 11.9583 9.80686 11.9583 9.0013C11.9583 8.19575 11.6736 7.50825 11.1042 6.9388C10.5347 6.36936 9.84722 6.08464 9.04167 6.08464C8.22222 6.08464 7.53125 6.36936 6.96875 6.9388C6.40625 7.50825 6.125 8.19575 6.125 9.0013C6.125 9.80686 6.40625 10.4944 6.96875 11.0638C7.53125 11.6332 8.22222 11.918 9.04167 11.918Z" fill="#6B7280"/>
</svg>
