<svg width="18" height="17" viewBox="0 0 18 17" fill="none" xmlns="http://www.w3.org/2000/svg">
<path fill-rule="evenodd" clip-rule="evenodd" d="M15.7314 0.691638C15.9373 0.604963 16.1627 0.57507 16.3841 0.605069C16.6055 0.635067 16.8148 0.723861 16.9903 0.862209C17.1657 1.00056 17.3009 1.1834 17.3817 1.39171C17.4625 1.60001 17.486 1.82617 17.4497 2.04664L15.5597 13.5108C15.3764 14.6166 14.163 15.2508 13.1489 14.7C12.3005 14.2391 11.0405 13.5291 9.90719 12.7883C9.34053 12.4175 7.60469 11.23 7.81803 10.385C8.00136 9.66247 10.918 6.94747 12.5847 5.3333C13.2389 4.69914 12.9405 4.3333 12.168 4.91664C10.2497 6.36497 7.16969 8.56747 6.15136 9.18747C5.25303 9.73414 4.78469 9.82747 4.22469 9.73414C3.20302 9.56414 2.25553 9.30081 1.48219 8.97997C0.437192 8.54664 0.488025 7.10997 1.48136 6.69164L15.7314 0.691638Z" fill="#056FE5"/>
</svg>
