<svg width="24" height="24" viewBox="0 0 24 24" fill="none" xmlns="http://www.w3.org/2000/svg">
<path fill-rule="evenodd" clip-rule="evenodd" d="M5.78734 14.019C5.83031 14.0333 5.87449 14.0437 5.91934 14.05C6.20226 14.7167 6.48359 15.384 6.76334 16.052C7.26634 17.254 7.77334 18.492 7.88434 18.848C8.02334 19.286 8.16934 19.584 8.32934 19.788C8.41234 19.892 8.50734 19.984 8.61934 20.054C8.67768 20.0905 8.74011 20.1201 8.80534 20.142C9.12534 20.262 9.41734 20.212 9.60034 20.151C9.70773 20.1144 9.80991 20.0639 9.90434 20.001L9.90934 19.999L12.7353 18.237L16.0003 20.739C16.0483 20.776 16.1003 20.807 16.1563 20.832C16.5483 21.002 16.9283 21.062 17.2863 21.014C17.6423 20.964 17.9253 20.815 18.1363 20.646C18.3786 20.4507 18.5718 20.2014 18.7003 19.918L18.7093 19.896L18.7123 19.888L18.7143 19.884V19.882L18.7153 19.881C18.7327 19.838 18.7461 19.7935 18.7553 19.748L21.7353 4.72301C21.7448 4.67492 21.7494 4.62602 21.7493 4.57701C21.7493 4.13701 21.5833 3.71801 21.1943 3.46501C20.8603 3.24801 20.4893 3.23801 20.2543 3.25601C20.0023 3.27601 19.7683 3.33801 19.6113 3.38801C19.5235 3.41586 19.4367 3.44722 19.3513 3.48201L19.3403 3.48701L2.62634 10.043L2.62434 10.044C2.56779 10.0648 2.51208 10.0878 2.45734 10.113C2.3248 10.1726 2.19766 10.2435 2.07734 10.325C1.85034 10.48 1.32734 10.906 1.41634 11.61C1.48634 12.17 1.87034 12.515 2.10534 12.681C2.23334 12.772 2.35534 12.837 2.44534 12.88C2.48534 12.9 2.57134 12.934 2.60834 12.95L2.61834 12.953L5.78734 14.019ZM19.9253 4.86701H19.9233C19.9147 4.87083 19.9061 4.8745 19.8973 4.87801L3.16334 11.443C3.15473 11.4465 3.14606 11.4498 3.13734 11.453L3.12734 11.456C3.09677 11.468 3.06674 11.4814 3.03734 11.496C3.06517 11.512 3.09388 11.5263 3.12334 11.539L6.26534 12.597C6.32149 12.6159 6.37519 12.6414 6.42534 12.673L16.8023 6.59801L16.8123 6.59301C16.8526 6.56851 16.894 6.54583 16.9363 6.52501C17.0083 6.48801 17.1233 6.43401 17.2533 6.39401C17.3433 6.36601 17.6103 6.28701 17.8983 6.38001C18.0511 6.42816 18.1872 6.5183 18.2912 6.64013C18.3952 6.76196 18.4628 6.91058 18.4863 7.06901C18.5236 7.20776 18.5246 7.35374 18.4893 7.49301C18.4193 7.76801 18.2273 7.98201 18.0523 8.14601C17.9023 8.28601 15.9563 10.162 14.0373 12.014L11.4243 14.534L10.9593 14.984L16.8313 19.486C16.9106 19.5193 16.9967 19.533 17.0823 19.526C17.1255 19.5202 17.1661 19.5021 17.1993 19.474C17.2399 19.4398 17.2747 19.3993 17.3023 19.354L17.3043 19.353L20.1943 4.78001C20.1033 4.80191 20.014 4.83066 19.9273 4.86601L19.9253 4.86701ZM11.4643 17.261L10.2923 16.363L10.0083 18.168L11.4643 17.261ZM9.21734 14.581L10.3823 13.456L12.9953 10.934L13.9683 9.99601L7.44834 13.813L7.48334 13.895C7.89454 14.8664 8.30121 15.8398 8.70334 16.815L8.98634 15.015C9.01195 14.8481 9.09338 14.6957 9.21734 14.581Z" fill="white"/>
</svg>
