<svg width="12" height="13" viewBox="0 0 12 13" fill="none" xmlns="http://www.w3.org/2000/svg">
<path d="M0 3.50008V4.83341H12V3.50008C12 3.14646 11.8595 2.80732 11.6095 2.55727C11.3594 2.30722 11.0203 2.16675 10.6667 2.16675H1.33333C0.979711 2.16675 0.640573 2.30722 0.390524 2.55727C0.140476 2.80732 0 3.14646 0 3.50008Z" fill="#0099B5"/>
<path d="M12 9.50008V8.16675H0V9.50008C0 9.8537 0.140476 10.1928 0.390524 10.4429C0.640573 10.6929 0.979711 10.8334 1.33333 10.8334H10.6667C11.0203 10.8334 11.3594 10.6929 11.6095 10.4429C11.8595 10.1928 12 9.8537 12 9.50008Z" fill="#1EB53A"/>
<path d="M0 4.83325H12V5.33325H0V4.83325ZM0 7.66659H12V8.16658H0V7.66659Z" fill="#CE1126"/>
<path d="M0 6.49992V7.66659H12V5.33325H0V6.49992Z" fill="#EEEEEE"/>
<path d="M1.40011 3.55331C1.40014 3.30755 1.48719 3.06975 1.64584 2.88206C1.80448 2.69438 2.02446 2.56893 2.26678 2.52797C2.11761 2.50265 1.96471 2.51018 1.81875 2.55004C1.67279 2.58991 1.53729 2.66113 1.42169 2.75876C1.3061 2.85639 1.2132 2.97806 1.14947 3.11529C1.08575 3.25252 1.05273 3.402 1.05273 3.55331C1.05273 3.70461 1.08575 3.85409 1.14947 3.99132C1.2132 4.12855 1.3061 4.25023 1.42169 4.34785C1.53729 4.44548 1.67279 4.51671 1.81875 4.55657C1.96471 4.59643 2.11761 4.60396 2.26678 4.57864C2.02446 4.53768 1.80448 4.41224 1.64584 4.22455C1.48719 4.03686 1.40014 3.79906 1.40011 3.55331ZM2.96111 4.32097L2.91445 4.17731L2.86778 4.32097H2.71645L2.83878 4.40997L2.79211 4.55364L2.91445 4.46464L3.03645 4.55364L2.98978 4.40997L3.11211 4.32097H2.96111ZM3.86178 4.32097L3.81511 4.17731L3.76845 4.32097H3.61745L3.73978 4.40997L3.69311 4.55364L3.81511 4.46464L3.93745 4.55364L3.89078 4.40997L4.01311 4.32097H3.86178ZM3.81511 3.34531L3.76845 3.48897H3.61745L3.73978 3.57797L3.69311 3.72164L3.81511 3.63264L3.93745 3.72164L3.89078 3.57797L4.01311 3.48897H3.86178L3.81511 3.34531ZM4.76278 4.32097L4.71611 4.17731L4.66945 4.32097H4.51845L4.64045 4.40997L4.59378 4.55364L4.71611 4.46464L4.83845 4.55364L4.79178 4.40997L4.91378 4.32097H4.76278ZM4.71611 3.34531L4.66945 3.48897H4.51845L4.64045 3.57797L4.59378 3.72164L4.71611 3.63264L4.83845 3.72164L4.79178 3.57797L4.91378 3.48897H4.76278L4.71611 3.34531ZM4.71611 2.51331L4.66945 2.65697H4.51845L4.64045 2.74597L4.59378 2.88964L4.71611 2.80064L4.83845 2.88964L4.79178 2.74597L4.91378 2.65697H4.76278L4.71611 2.51331ZM5.66378 4.32097L5.61711 4.17731L5.57045 4.32097H5.41911L5.54145 4.40997L5.49478 4.55364L5.61711 4.46464L5.73911 4.55364L5.69245 4.40997L5.81478 4.32097H5.66378ZM5.61711 3.34531L5.57045 3.48897H5.41911L5.54145 3.57797L5.49478 3.72164L5.61711 3.63264L5.73911 3.72164L5.69245 3.57797L5.81478 3.48897H5.66378L5.61711 3.34531ZM5.61711 2.51331L5.57045 2.65697H5.41911L5.54145 2.74597L5.49478 2.88964L5.61711 2.80064L5.73911 2.88964L5.69245 2.74597L5.81478 2.65697H5.66378L5.61711 2.51331ZM6.56445 4.32097L6.51778 4.17731L6.47111 4.32097H6.32011L6.44245 4.40997L6.39578 4.55364L6.51778 4.46464L6.64011 4.55364L6.59345 4.40997L6.71578 4.32097H6.56445ZM6.51778 3.34531L6.47111 3.48897H6.32011L6.44245 3.57797L6.39578 3.72164L6.51778 3.63264L6.64011 3.72164L6.59345 3.57797L6.71578 3.48897H6.56445L6.51778 3.34531ZM6.51778 2.51331L6.47111 2.65697H6.32011L6.44245 2.74597L6.39578 2.88964L6.51778 2.80064L6.64011 2.88964L6.59345 2.74597L6.71578 2.65697H6.56445L6.51778 2.51331Z" fill="white"/>
</svg>
