<svg width="27" height="18" viewBox="0 0 27 18" fill="none" xmlns="http://www.w3.org/2000/svg">
<g clip-path="url(#clip0_29_532)">
<path d="M25.4853 2.8075C25.3385 2.26486 25.052 1.77014 24.6545 1.37263C24.257 0.975112 23.7623 0.688661 23.2197 0.5418C21.2331 0 13.2377 0 13.2377 0C13.2377 0 5.2419 0.0164 3.2553 0.5582C2.71265 0.70507 2.21795 0.991536 1.82045 1.38907C1.42295 1.78661 1.13652 2.28134 0.989703 2.824C0.388803 6.3538 0.155703 11.7324 1.0062 15.121C1.15304 15.6636 1.43947 16.1584 1.83697 16.5559C2.23447 16.9534 2.72916 17.2398 3.2718 17.3867C5.2584 17.9285 13.254 17.9285 13.254 17.9285C13.254 17.9285 21.2495 17.9285 23.236 17.3867C23.7787 17.2399 24.2734 16.9534 24.6709 16.5559C25.0684 16.1584 25.3549 15.6637 25.5017 15.121C26.1355 11.5862 26.3308 6.2109 25.4853 2.8075Z" fill="#FF0000"/>
<path d="M10.6929 12.8059L17.3257 8.96405L10.6929 5.12225V12.8059Z" fill="white"/>
</g>
<defs>
<clipPath id="clip0_29_532">
<rect width="25.6" height="18" fill="white" transform="translate(0.449951)"/>
</clipPath>
</defs>
</svg>
