<svg width="24" height="19" viewBox="0 0 24 19" fill="none" xmlns="http://www.w3.org/2000/svg">
<path d="M5.92424 18.0182C4.23535 18.0182 2.98788 17.5 2.18182 16.4636C1.37576 15.3889 0.972727 14.0646 0.972727 12.4909C0.972727 11.0707 1.2798 9.6697 1.89394 8.28788C2.50808 6.86768 3.37172 5.52424 4.48485 4.25758C5.63636 2.99091 6.9798 1.85859 8.51515 0.860605L9.60909 2.3C8.07374 3.4899 6.94141 4.69899 6.21212 5.92727C5.52121 7.15555 5.15657 8.40303 5.11818 9.6697H6.44242C7.40202 9.6697 8.18889 9.82323 8.80303 10.1303C9.45556 10.4374 9.93535 10.8788 10.2424 11.4545C10.5879 11.9919 10.7606 12.6444 10.7606 13.4121C10.7606 14.6788 10.3 15.7727 9.37879 16.6939C8.49596 17.5768 7.34444 18.0182 5.92424 18.0182ZM18.2455 18.0182C16.5949 18.0182 15.3475 17.5 14.503 16.4636C13.697 15.3889 13.2939 14.0646 13.2939 12.4909C13.2939 11.0707 13.601 9.6697 14.2152 8.28788C14.8293 6.86768 15.6929 5.52424 16.8061 4.25758C17.9576 2.99091 19.3202 1.85859 20.8939 0.860605L21.9879 2.3C20.4141 3.4899 19.2626 4.69899 18.5333 5.92727C17.8424 7.15555 17.4778 8.40303 17.4394 9.6697H18.8212C19.7808 9.6697 20.5677 9.82323 21.1818 10.1303C21.8343 10.399 22.3141 10.8212 22.6212 11.397C22.9667 11.9727 23.1394 12.6444 23.1394 13.4121C23.1394 14.6788 22.6788 15.7727 21.7576 16.6939C20.8747 17.5768 19.704 18.0182 18.2455 18.0182Z" fill="white"/>
</svg>
