<svg width="117" height="117" viewBox="0 0 117 117" fill="none" xmlns="http://www.w3.org/2000/svg">
<path d="M24.375 9.75H78C81.8788 9.75 85.5987 11.2908 88.3414 14.0336C91.0842 16.7763 92.625 20.4962 92.625 24.375V92.625C92.625 93.9179 92.1114 95.1579 91.1971 96.0721C90.2829 96.9864 89.0429 97.5 87.75 97.5H73.125" stroke="#001B61" stroke-width="9.75" stroke-linecap="round" stroke-linejoin="round"/>
<path d="M58.5 58.5V68.25M24.375 9.75L61.3665 17.1503C64.6815 17.8128 67.6646 19.6034 69.8083 22.2173C71.9521 24.8312 73.1241 28.1071 73.125 31.4876V101.303C73.1246 102.023 72.9642 102.735 72.6555 103.387C72.3468 104.038 71.8974 104.613 71.3398 105.07C70.7821 105.527 70.13 105.855 69.4305 106.029C68.731 106.204 68.0015 106.221 67.2945 106.08L32.214 99.0698C30.0029 98.6278 28.0133 97.4332 26.5841 95.6892C25.1548 93.9453 24.3741 91.7598 24.375 89.505V9.75Z" stroke="#001B61" stroke-width="9.75" stroke-linecap="round" stroke-linejoin="round"/>
</svg>
