<svg width="117" height="117" viewBox="0 0 117 117" fill="none" xmlns="http://www.w3.org/2000/svg">
<g clip-path="url(#clip0_2551_4051)">
<path d="M58.175 56.2252C66.95 56.2252 73.775 49.0752 73.775 40.3002C73.775 31.5252 66.625 24.7002 57.85 24.7002C49.075 24.7002 42.25 31.8502 42.25 40.3002C42.25 49.0752 49.4 56.2252 58.175 56.2252ZM57.85 31.2002C58.175 31.2002 58.175 31.2002 57.85 31.2002C63.05 31.2002 67.275 35.4252 67.275 40.6252C67.275 45.8252 63.05 49.7252 57.85 49.7252C52.65 49.7252 48.75 45.5002 48.75 40.6252C48.75 35.4252 52.975 31.2002 57.85 31.2002Z" fill="#001B61"/>
<path d="M106.275 54.2745C100.1 48.7495 91.975 45.8245 83.525 46.1495H80.925C80.275 48.7495 79.3 51.0245 78 52.9745C79.95 52.6495 81.575 52.6495 83.525 52.6495C89.7 52.3245 95.875 54.2745 100.75 57.8495V81.2495H107.25V55.2495L106.275 54.2745Z" fill="#001B61"/>
<path d="M76.05 25.3496C77.675 21.4496 82.225 19.4996 86.45 21.1246C90.35 22.7496 92.3 27.2996 90.675 31.5246C89.375 34.4496 86.45 36.3996 83.525 36.3996C82.875 36.3996 81.9 36.3996 81.25 36.0746C81.575 37.6996 81.575 39.3246 81.575 40.6246V42.5746C82.225 42.5746 82.875 42.8996 83.525 42.8996C91.65 42.8996 98.15 36.3996 98.15 28.5996C98.15 20.4746 91.65 13.9746 83.85 13.9746C78.65 13.9746 74.1 16.5746 71.5 21.1246C73.125 22.0996 74.75 23.3996 76.05 25.3496Z" fill="#001B61"/>
<path d="M39 53.3002C37.7 51.3502 36.725 49.0752 36.075 46.4752H33.475C25.025 46.1502 16.9 49.0752 10.725 54.2752L9.75 55.2502V81.2502H16.25V57.8502C21.45 54.2752 27.3 52.3252 33.475 52.6502C35.425 52.6502 37.375 52.9752 39 53.3002Z" fill="#001B61"/>
<path d="M33.4742 42.5755C34.1242 42.5755 34.7742 42.5755 35.4242 42.2505V40.3005C35.4242 38.6755 35.4242 37.0505 35.7492 35.7505C35.0992 36.0755 34.1242 36.0755 33.4742 36.0755C29.2492 36.0755 25.6742 32.5005 25.6742 28.2755C25.6742 24.0505 29.2492 20.4755 33.4742 20.4755C36.7242 20.4755 39.6493 22.4255 40.9492 25.3505C42.2493 23.7255 44.1993 22.1005 45.8243 20.8005C41.5993 13.9755 32.8242 11.7005 25.9992 15.9255C19.1742 20.1505 16.8992 28.9255 21.1242 35.7505C23.7242 39.9755 28.2742 42.5755 33.4742 42.5755Z" fill="#001B61"/>
<path d="M84.825 73.7749L84.175 72.7999C77.675 65.6499 68.575 61.4249 58.825 61.7499C49.075 61.4249 39.65 65.6499 33.15 72.7999L32.5 73.7749V98.4749C32.5 101.4 34.775 104 38.025 104H79.625C82.55 104 85.15 101.4 85.15 98.4749V73.7749H84.825ZM78.325 97.4999H39V76.0499C44.2 70.8499 51.35 68.2499 58.825 68.2499C65.975 67.9249 73.125 70.8499 78.325 76.0499V97.4999Z" fill="#001B61"/>
</g>
<defs>
<clipPath id="clip0_2551_4051">
<rect width="117" height="117" fill="white"/>
</clipPath>
</defs>
</svg>
