<svg width="137" height="201" viewBox="0 0 137 201" fill="none" xmlns="http://www.w3.org/2000/svg">
<path d="M26.9324 43.5362L25.0746 44.3C18.8221 35.3743 13.4922 25.8366 9.16695 15.8338L8.35817 13.9634L1.04474 -2.94995H73.1343L58.9839 17.0977C55.7168 21.7263 54.7699 27.604 56.4179 33.0245L61.1194 40.0046H47.0149H44.81C38.6775 40.0046 32.6042 41.2043 26.9324 43.5362Z" fill="#BEF264"/>
<path d="M56.5475 17.2346L71.006 -4H153.582V206H71.006L54.8174 184.263C53.1431 182.014 52.2388 179.286 52.2388 176.483C52.2388 174.172 52.9826 171.924 54.3602 170.069L61.5906 160.335C63.8034 157.356 67.2953 155.6 71.006 155.6L86.5561 149.3L95.6716 137.75L106.396 123.575L109.613 109.925V96.8V85.25L104.251 72.65L95.6716 58.475L84.4112 49.55L71.006 43.25L57.6008 40.1L54.1039 31.5405C52.9038 28.6027 52.8413 25.3232 53.9288 22.3419C54.5869 20.5376 55.4665 18.822 56.5475 17.2346Z" fill="#84CC16"/>
<path d="M22.3525 165.728L29.2537 156.125L64.2537 159.275C56.7106 170.015 56.6111 184.304 64.004 195.148L71.0448 205.475H0L10.4327 185.204C13.9206 178.427 17.9047 171.918 22.3525 165.728Z" fill="#BEF264"/>
</svg>
