<svg width="310" height="230" viewBox="0 0 310 230" fill="none" xmlns="http://www.w3.org/2000/svg">
<g clip-path="url(#clip0_5239_15367)">
<rect width="310" height="230" fill="#D1D5DB"/>
<path d="M170.656 98.3438H138.344C137.565 98.3438 136.818 98.6532 136.267 99.2041C135.716 99.755 135.406 100.502 135.406 101.281V127.719C135.406 128.498 135.716 129.245 136.267 129.796C136.818 130.347 137.565 130.656 138.344 130.656H170.656C171.435 130.656 172.182 130.347 172.733 129.796C173.284 129.245 173.594 128.498 173.594 127.719V101.281C173.594 100.502 173.284 99.755 172.733 99.2041C172.182 98.6532 171.435 98.3438 170.656 98.3438ZM170.656 101.281V120.146L165.87 115.361C165.597 115.088 165.273 114.872 164.917 114.724C164.56 114.576 164.178 114.5 163.793 114.5C163.407 114.5 163.025 114.576 162.668 114.724C162.312 114.872 161.988 115.088 161.715 115.361L158.043 119.033L149.965 110.955C149.414 110.404 148.668 110.095 147.889 110.095C147.11 110.095 146.363 110.404 145.812 110.955L138.344 118.423V101.281H170.656ZM138.344 122.578L147.891 113.031L162.578 127.719H138.344V122.578ZM170.656 127.719H166.733L160.123 121.109L163.795 117.438L170.656 124.3V127.719ZM157.438 109.359C157.438 108.924 157.567 108.498 157.809 108.135C158.051 107.773 158.395 107.491 158.798 107.324C159.2 107.157 159.643 107.114 160.07 107.199C160.498 107.284 160.89 107.493 161.198 107.802C161.507 108.11 161.716 108.502 161.801 108.93C161.886 109.357 161.843 109.8 161.676 110.202C161.509 110.605 161.227 110.949 160.865 111.191C160.502 111.433 160.076 111.562 159.641 111.562C159.056 111.562 158.496 111.33 158.083 110.917C157.67 110.504 157.438 109.944 157.438 109.359Z" fill="#F9FAFB"/>
</g>
<defs>
<clipPath id="clip0_5239_15367">
<rect width="310" height="230" fill="white"/>
</clipPath>
</defs>
</svg>
