<svg width="82" height="82" viewBox="0 0 82 82" fill="none" xmlns="http://www.w3.org/2000/svg">
<circle cx="41" cy="41" r="41" fill="#E5E7EB"/>
<path d="M52 30H30C29.4696 30 28.9609 30.2107 28.5858 30.5858C28.2107 30.9609 28 31.4696 28 32V50C28 50.5304 28.2107 51.0391 28.5858 51.4142C28.9609 51.7893 29.4696 52 30 52H52C52.5304 52 53.0391 51.7893 53.4142 51.4142C53.7893 51.0391 54 50.5304 54 50V32C54 31.4696 53.7893 30.9609 53.4142 30.5858C53.0391 30.2107 52.5304 30 52 30ZM52 32V44.8438L48.7412 41.5863C48.5555 41.4005 48.335 41.2531 48.0923 41.1526C47.8497 41.052 47.5896 41.0003 47.3269 41.0003C47.0642 41.0003 46.8041 41.052 46.5614 41.1526C46.3187 41.2531 46.0982 41.4005 45.9125 41.5863L43.4125 44.0863L37.9125 38.5863C37.5375 38.2115 37.029 38.0009 36.4987 38.0009C35.9685 38.0009 35.46 38.2115 35.085 38.5863L30 43.6712V32H52ZM30 46.5L36.5 40L46.5 50H30V46.5ZM52 50H49.3288L44.8288 45.5L47.3288 43L52 47.6725V50ZM43 37.5C43 37.2033 43.088 36.9133 43.2528 36.6666C43.4176 36.42 43.6519 36.2277 43.926 36.1142C44.2001 36.0006 44.5017 35.9709 44.7926 36.0288C45.0836 36.0867 45.3509 36.2296 45.5607 36.4393C45.7704 36.6491 45.9133 36.9164 45.9712 37.2074C46.0291 37.4983 45.9993 37.7999 45.8858 38.074C45.7723 38.3481 45.58 38.5824 45.3334 38.7472C45.0867 38.912 44.7967 39 44.5 39C44.1022 39 43.7206 38.842 43.4393 38.5607C43.158 38.2794 43 37.8978 43 37.5Z" fill="#9CA3AF"/>
</svg>
