<svg width="116" height="116" viewBox="0 0 116 116" fill="none" xmlns="http://www.w3.org/2000/svg">
<path d="M83.3926 60.3674C82.0199 71.7983 74.5331 76.3658 71.2996 79.6814C68.0612 83.0068 68.6412 83.6689 68.8587 88.5458C68.895 89.1491 68.8074 89.7536 68.6012 90.3218C68.395 90.89 68.0746 91.41 67.6599 91.8497C67.2451 92.2894 66.7446 92.6395 66.1894 92.8784C65.6341 93.1173 65.0359 93.24 64.4314 93.2389H51.5844C50.9799 93.2393 50.3818 93.1161 49.8266 92.877C49.2714 92.6379 48.771 92.2879 48.356 91.8484C47.9409 91.4089 47.6201 90.8893 47.4131 90.3214C47.2061 89.7534 47.1173 89.1492 47.1522 88.5458C47.1522 83.7608 47.5969 82.6491 44.7162 79.6814C41.0429 76.0081 32.4009 70.8219 32.4009 56.5588C32.3788 53.0159 33.0909 49.5069 34.4923 46.253C35.8937 42.999 37.954 40.0706 40.5433 37.6525C43.1327 35.2343 46.1949 33.3787 49.5369 32.2027C52.879 31.0268 56.4284 30.5559 59.9615 30.8198C63.4945 31.0837 66.9346 32.0766 70.0649 33.736C73.1951 35.3954 75.9477 37.6853 78.1491 40.4613C80.3504 43.2373 81.9528 46.4393 82.8553 49.8653C83.7577 53.2913 83.9407 56.8672 83.3926 60.3674Z" stroke="#001B61" stroke-width="7.25" stroke-linecap="round" stroke-linejoin="round"/>
<path d="M50.5632 92.9734V100.281C50.5632 102.278 51.6748 103.916 53.0427 103.916H62.9655C64.343 103.916 65.4498 102.273 65.4498 100.281V92.9734M54.2365 42.0301C51.3826 42.0314 48.646 43.166 46.6284 45.1845C44.6109 47.203 43.4775 49.94 43.4775 52.794M93.4445 57.5355H102.309M84.5222 28.4774L90.8103 22.1893M89.3555 82.1661L95.6437 88.4494M58.0065 11.4883V18.6561M25.3332 22.1844L31.5778 28.4774M20.4998 88.4494L26.7445 82.1661M22.5685 57.5355H13.709" stroke="#001B61" stroke-width="7.25" stroke-linecap="round" stroke-linejoin="round"/>
</svg>
