<svg width="117" height="117" viewBox="0 0 117 117" fill="none" xmlns="http://www.w3.org/2000/svg">
<g clip-path="url(#clip0_2551_4034)">
<path d="M58.5 35.1L89.7 50.7V113.1H27.3V50.7L58.5 35.1ZM58.5 35.1V0M0 113.1H117M11.7 113.1V66.3H27.3M105.3 113.1V66.3H89.7M50.7 113.1V89.7H66.3V113.1M58.5 3.9H81.9V19.5H58.5M58.5 74.1C56.4313 74.1 54.4474 73.2782 52.9846 71.8154C51.5218 70.3526 50.7 68.3687 50.7 66.3C50.7 64.2313 51.5218 62.2474 52.9846 60.7846C54.4474 59.3218 56.4313 58.5 58.5 58.5C60.5687 58.5 62.5526 59.3218 64.0154 60.7846C65.4782 62.2474 66.3 64.2313 66.3 66.3C66.3 68.3687 65.4782 70.3526 64.0154 71.8154C62.5526 73.2782 60.5687 74.1 58.5 74.1Z" stroke="#001B61" stroke-width="7.8"/>
</g>
<defs>
<clipPath id="clip0_2551_4034">
<rect width="117" height="117" fill="white"/>
</clipPath>
</defs>
</svg>
